<?xml version="1.0" encoding="UTF-8"?>
<!DOCTYPE svg PUBLIC "-//W3C//DTD SVG 1.1//EN" "http://www.w3.org/Graphics/SVG/1.1/DTD/svg11.dtd">
<svg xmlns="http://www.w3.org/2000/svg" version="1.1" width="1048px" height="238px" style="shape-rendering:geometricPrecision; text-rendering:geometricPrecision; image-rendering:optimizeQuality; fill-rule:evenodd; clip-rule:evenodd" xmlns:xlink="http://www.w3.org/1999/xlink">
<g><path style="opacity:1" fill="#d0c9f1" d="M -0.5,-0.5 C 348.833,-0.5 698.167,-0.5 1047.5,-0.5C 1047.5,26.5 1047.5,53.5 1047.5,80.5C 1028.53,76.0947 1009.36,75.4281 990,78.5C 989.127,78.2645 988.293,77.9312 987.5,77.5C 966.695,82.0504 946.362,87.8837 926.5,95C 912.991,94.611 899.491,93.7777 886,92.5C 838.748,92.4021 797.914,108.069 763.5,139.5C 745.439,153.194 727.772,167.361 710.5,182C 709.207,182.49 707.873,182.657 706.5,182.5C 706.079,184.91 704.746,186.743 702.5,188C 695.581,191.881 689.247,196.381 683.5,201.5C 682.833,201.5 682.167,201.5 681.5,201.5C 665.249,203.535 648.916,204.035 632.5,203C 603.328,199.148 574.828,193.648 547,186.5C 516.18,178.007 485.68,168.673 455.5,158.5C 454.5,157.833 453.5,157.167 452.5,156.5C 436.184,141.597 418.85,128.764 400.5,118C 376.286,105.735 350.619,98.4015 323.5,96C 304.53,94.2393 285.53,93.0727 266.5,92.5C 257.288,88.9043 247.621,86.9043 237.5,86.5C 231.516,85.9258 225.516,85.5925 219.5,85.5C 217.031,84.6829 214.365,84.1829 211.5,84C 152.379,81.9205 95.3793,90.2539 40.5,109C 27.3547,112.56 14.8547,117.393 3,123.5C 2.01381,122.829 0.847141,122.829 -0.5,123.5C -0.5,82.1667 -0.5,40.8333 -0.5,-0.5 Z"/></g>
<g><path style="opacity:1" fill="#ddd9f5" d="M 219.5,85.5 C 213.31,85.1771 207.31,85.5104 201.5,86.5C 197.958,86.1872 194.625,86.5206 191.5,87.5C 173.668,88.3601 156.335,91.3601 139.5,96.5C 89.2881,110.706 42.6214,132.372 -0.5,161.5C -0.5,148.833 -0.5,136.167 -0.5,123.5C 0.847141,122.829 2.01381,122.829 3,123.5C 14.8547,117.393 27.3547,112.56 40.5,109C 95.3793,90.2539 152.379,81.9205 211.5,84C 214.365,84.1829 217.031,84.6829 219.5,85.5 Z"/></g>
<g><path style="opacity:1" fill="#e6e2f7" d="M 201.5,86.5 C 207.31,85.5104 213.31,85.1771 219.5,85.5C 225.516,85.5925 231.516,85.9258 237.5,86.5C 237.5,86.8333 237.5,87.1667 237.5,87.5C 225.51,86.8773 213.51,86.5439 201.5,86.5 Z"/></g>
<g><path style="opacity:0.998" fill="#edebf9" d="M 201.5,86.5 C 213.51,86.5439 225.51,86.8773 237.5,87.5C 247.256,88.703 256.923,90.3697 266.5,92.5C 266.5,92.8333 266.5,93.1667 266.5,93.5C 260.974,93.1786 255.64,93.5119 250.5,94.5C 235.932,96.1992 221.266,98.1992 206.5,100.5C 201.106,100.124 196.106,101.124 191.5,103.5C 190.081,104.451 188.415,104.784 186.5,104.5C 181.46,104.923 176.793,106.256 172.5,108.5C 167.106,110.739 161.439,112.406 155.5,113.5C 148.032,113.506 141.032,115.173 134.5,118.5C 135.791,119.527 135.791,120.527 134.5,121.5C 132.579,122.363 130.579,123.029 128.5,123.5C 125.654,123.552 123.32,124.552 121.5,126.5C 117.898,126.692 114.898,128.026 112.5,130.5C 111.486,131.674 110.153,132.34 108.5,132.5C 104.088,133.869 99.7543,135.536 95.5,137.5C 94.8333,137.167 94.1667,136.833 93.5,136.5C 92.7621,138.065 91.7621,139.732 90.5,141.5C 61.9442,156.726 35.2775,174.726 10.5,195.5C 8.91391,196.413 7.41391,196.413 6,195.5C 4.1691,197.838 2.00243,199.838 -0.5,201.5C -0.5,188.167 -0.5,174.833 -0.5,161.5C 42.6214,132.372 89.2881,110.706 139.5,96.5C 145.35,97.1393 150.85,96.1393 156,93.5C 159.375,94.712 162.375,94.0454 165,91.5C 166.4,92.1159 167.9,92.4493 169.5,92.5C 174.952,91.2379 180.452,90.2379 186,89.5C 188.631,91.0362 190.465,90.3695 191.5,87.5C 194.625,86.5206 197.958,86.1872 201.5,86.5 Z"/></g>
<g><path style="opacity:1" fill="#d2cded" d="M 237.5,87.5 C 237.5,87.1667 237.5,86.8333 237.5,86.5C 247.621,86.9043 257.288,88.9043 266.5,92.5C 256.923,90.3697 247.256,88.703 237.5,87.5 Z"/></g>
<g><path style="opacity:1" fill="#ece9fb" d="M 191.5,87.5 C 190.465,90.3695 188.631,91.0362 186,89.5C 180.452,90.2379 174.952,91.2379 169.5,92.5C 167.9,92.4493 166.4,92.1159 165,91.5C 162.375,94.0454 159.375,94.712 156,93.5C 150.85,96.1393 145.35,97.1393 139.5,96.5C 156.335,91.3601 173.668,88.3601 191.5,87.5 Z"/></g>
<g><path style="opacity:0.128" fill="#f7f6fb" d="M 250.5,94.5 C 255.64,93.5119 260.974,93.1786 266.5,93.5C 268.898,93.2594 270.898,93.9261 272.5,95.5C 265.209,94.6076 257.876,94.2743 250.5,94.5 Z"/></g>
<g><path style="opacity:1" fill="#ddd9f4" d="M 266.5,93.5 C 266.5,93.1667 266.5,92.8333 266.5,92.5C 285.53,93.0727 304.53,94.2393 323.5,96C 350.619,98.4015 376.286,105.735 400.5,118C 418.85,128.764 436.184,141.597 452.5,156.5C 409.823,141.498 367.157,126.498 324.5,111.5C 322.958,110.699 321.292,110.366 319.5,110.5C 313.097,107.642 306.43,105.309 299.5,103.5C 293.683,101.793 288.017,99.6262 282.5,97C 279.207,96.1744 275.874,95.6744 272.5,95.5C 270.898,93.9261 268.898,93.2594 266.5,93.5 Z"/></g>
<g><path style="opacity:1" fill="#ddd9f5" d="M 1047.5,80.5 C 1047.5,94.8333 1047.5,109.167 1047.5,123.5C 1041.35,119.093 1034.69,115.76 1027.5,113.5C 1017.58,108.502 1006.92,105.502 995.5,104.5C 981.496,104.667 967.496,104.5 953.5,104C 947.613,101.981 941.613,100.481 935.5,99.5C 931.84,98.3273 928.007,97.3273 924,96.5C 917.422,98.5472 911.255,101.214 905.5,104.5C 889.742,110.878 874.742,118.545 860.5,127.5C 831.589,143.786 802.589,159.786 773.5,175.5C 767.233,177.572 761.566,180.572 756.5,184.5C 752.463,185.065 748.797,186.399 745.5,188.5C 743.179,189.625 740.846,189.792 738.5,189C 736.676,189.66 735.343,190.827 734.5,192.5C 734.158,193.338 733.492,193.672 732.5,193.5C 722.586,195.547 712.586,197.713 702.5,200C 696.183,200.765 689.849,201.265 683.5,201.5C 689.247,196.381 695.581,191.881 702.5,188C 704.746,186.743 706.079,184.91 706.5,182.5C 707.873,182.657 709.207,182.49 710.5,182C 727.772,167.361 745.439,153.194 763.5,139.5C 797.914,108.069 838.748,92.4021 886,92.5C 899.491,93.7777 912.991,94.611 926.5,95C 946.362,87.8837 966.695,82.0504 987.5,77.5C 988.293,77.9312 989.127,78.2645 990,78.5C 1009.36,75.4281 1028.53,76.0947 1047.5,80.5 Z"/></g>
<g><path style="opacity:1" fill="#ece9fa" d="M 935.5,99.5 C 934.566,100.568 934.232,101.901 934.5,103.5C 936.103,103.312 937.437,103.812 938.5,105C 936.167,105.667 933.833,105.667 931.5,105C 930.167,103.667 930.167,102.333 931.5,101C 930.747,99.513 929.914,99.3463 929,100.5C 925.191,97.8816 921.357,97.8816 917.5,100.5C 921.645,101.737 925.312,103.737 928.5,106.5C 928.113,107.72 927.28,108.387 926,108.5C 922.865,107.568 919.699,107.568 916.5,108.5C 916.119,106.058 916.786,105.391 918.5,106.5C 919.795,105.902 921.128,105.402 922.5,105C 919.792,104.764 917.292,103.931 915,102.5C 912.032,104.078 908.865,104.745 905.5,104.5C 911.255,101.214 917.422,98.5472 924,96.5C 928.007,97.3273 931.84,98.3273 935.5,99.5 Z"/></g>
<g><path style="opacity:0.371" fill="#f8f7fb" d="M 206.5,100.5 C 201.744,102.118 196.744,103.118 191.5,103.5C 196.106,101.124 201.106,100.124 206.5,100.5 Z"/></g>
<g><path style="opacity:0.996" fill="#edebf9" d="M 935.5,99.5 C 941.613,100.481 947.613,101.981 953.5,104C 967.496,104.5 981.496,104.667 995.5,104.5C 996.635,105.474 997.635,106.641 998.5,108C 1002.04,108.282 1005.54,108.782 1009,109.5C 1010.71,110.137 1010.88,111.137 1009.5,112.5C 1010.32,113.386 1011.32,113.719 1012.5,113.5C 1012.5,112.5 1012.5,111.5 1012.5,110.5C 1016.09,110.442 1019.26,111.442 1022,113.5C 1023.63,113.146 1025.46,113.146 1027.5,113.5C 1034.69,115.76 1041.35,119.093 1047.5,123.5C 1047.5,136.5 1047.5,149.5 1047.5,162.5C 1021.3,137.834 991.298,119.001 957.5,106C 953.152,105.585 948.819,105.751 944.5,106.5C 940.123,106.577 935.79,107.077 931.5,108C 926.275,109.081 921.275,110.581 916.5,112.5C 907.919,115.473 899.252,118.473 890.5,121.5C 884.448,122.445 878.615,124.112 873,126.5C 870.958,126.385 868.958,126.051 867,125.5C 865.121,127.013 862.954,127.679 860.5,127.5C 874.742,118.545 889.742,110.878 905.5,104.5C 908.865,104.745 912.032,104.078 915,102.5C 917.292,103.931 919.792,104.764 922.5,105C 921.128,105.402 919.795,105.902 918.5,106.5C 916.786,105.391 916.119,106.058 916.5,108.5C 919.699,107.568 922.865,107.568 926,108.5C 927.28,108.387 928.113,107.72 928.5,106.5C 925.312,103.737 921.645,101.737 917.5,100.5C 921.357,97.8816 925.191,97.8816 929,100.5C 929.914,99.3463 930.747,99.513 931.5,101C 930.167,102.333 930.167,103.667 931.5,105C 933.833,105.667 936.167,105.667 938.5,105C 937.437,103.812 936.103,103.312 934.5,103.5C 934.232,101.901 934.566,100.568 935.5,99.5 Z"/></g>
<g><path style="opacity:1" fill="#ece9fa" d="M 299.5,103.5 C 306.43,105.309 313.097,107.642 319.5,110.5C 315.731,110.545 311.898,109.545 308,107.5C 307.667,107.833 307.333,108.167 307,108.5C 304.335,107.039 301.835,105.372 299.5,103.5 Z"/></g>
<g><path style="opacity:0.037" fill="#f8f7fc" d="M 186.5,104.5 C 182.112,106.434 177.445,107.767 172.5,108.5C 176.793,106.256 181.46,104.923 186.5,104.5 Z"/></g>
<g><path style="opacity:1" fill="#ebe9fb" d="M 995.5,104.5 C 1006.92,105.502 1017.58,108.502 1027.5,113.5C 1025.46,113.146 1023.63,113.146 1022,113.5C 1019.26,111.442 1016.09,110.442 1012.5,110.5C 1012.5,111.5 1012.5,112.5 1012.5,113.5C 1011.32,113.719 1010.32,113.386 1009.5,112.5C 1010.88,111.137 1010.71,110.137 1009,109.5C 1005.54,108.782 1002.04,108.282 998.5,108C 997.635,106.641 996.635,105.474 995.5,104.5 Z"/></g>
<g><path style="opacity:0.051" fill="#f9f8fc" d="M 944.5,106.5 C 935.415,109.1 926.082,111.1 916.5,112.5C 921.275,110.581 926.275,109.081 931.5,108C 935.79,107.077 940.123,106.577 944.5,106.5 Z"/></g>
<g><path style="opacity:0.99" fill="#f0eef9" d="M 272.5,95.5 C 275.874,95.6744 279.207,96.1744 282.5,97C 288.017,99.6262 293.683,101.793 299.5,103.5C 301.835,105.372 304.335,107.039 307,108.5C 307.333,108.167 307.667,107.833 308,107.5C 311.898,109.545 315.731,110.545 319.5,110.5C 321.292,110.366 322.958,110.699 324.5,111.5C 326.499,114.316 328.499,117.649 330.5,121.5C 311.592,111.709 292.258,103.042 272.5,95.5 Z"/></g>
<g><path style="opacity:0.985" fill="#f2f0f9" d="M 155.5,113.5 C 148.731,116.538 141.731,119.204 134.5,121.5C 135.791,120.527 135.791,119.527 134.5,118.5C 141.032,115.173 148.032,113.506 155.5,113.5 Z"/></g>
<g><path style="opacity:0.024" fill="#f9f8fc" d="M 128.5,123.5 C 126.491,125.065 124.157,126.065 121.5,126.5C 123.32,124.552 125.654,123.552 128.5,123.5 Z"/></g>
<g><path style="opacity:0.996" fill="#f1f0f9" d="M 890.5,121.5 C 874.493,128.623 858.493,135.956 842.5,143.5C 844.285,139.727 847.285,138.061 851.5,138.5C 851.5,137.167 851.5,135.833 851.5,134.5C 855.241,135.401 857.241,134.068 857.5,130.5C 858.5,130.5 859.5,130.5 860.5,130.5C 860.5,129.5 860.5,128.5 860.5,127.5C 862.954,127.679 865.121,127.013 867,125.5C 868.958,126.051 870.958,126.385 873,126.5C 878.615,124.112 884.448,122.445 890.5,121.5 Z"/></g>
<g><path style="opacity:0.998" fill="#edebf9" d="M 324.5,111.5 C 367.157,126.498 409.823,141.498 452.5,156.5C 453.5,157.167 454.5,157.833 455.5,158.5C 468.535,170.87 481.868,182.87 495.5,194.5C 490.799,194.043 486.132,193.376 481.5,192.5C 479.214,192.405 477.214,191.738 475.5,190.5C 468.686,186.622 461.353,183.955 453.5,182.5C 434.96,175.56 416.96,167.56 399.5,158.5C 398.089,156.461 396.089,155.461 393.5,155.5C 372.333,144.417 351.333,133.084 330.5,121.5C 328.499,117.649 326.499,114.316 324.5,111.5 Z"/></g>
<g><path style="opacity:0.082" fill="#f8f7fc" d="M 121.5,126.5 C 118.912,128.592 115.912,129.925 112.5,130.5C 114.898,128.026 117.898,126.692 121.5,126.5 Z"/></g>
<g><path style="opacity:1" fill="#f5f3fb" d="M 108.5,132.5 C 102.719,135.876 96.719,138.876 90.5,141.5C 91.7621,139.732 92.7621,138.065 93.5,136.5C 94.1667,136.833 94.8333,137.167 95.5,137.5C 99.7543,135.536 104.088,133.869 108.5,132.5 Z"/></g>
<g><path style="opacity:0.979" fill="#f2f0f9" d="M 842.5,143.5 C 838.818,146.008 834.818,148.008 830.5,149.5C 831.598,148.603 831.598,147.77 830.5,147C 830.998,145.842 831.831,145.009 833,144.5C 836.126,144.669 839.293,144.335 842.5,143.5 Z"/></g>
<g><path style="opacity:1" fill="#ece9fa" d="M 860.5,127.5 C 860.5,128.5 860.5,129.5 860.5,130.5C 859.5,130.5 858.5,130.5 857.5,130.5C 857.241,134.068 855.241,135.401 851.5,134.5C 851.5,135.833 851.5,137.167 851.5,138.5C 847.285,138.061 844.285,139.727 842.5,143.5C 839.293,144.335 836.126,144.669 833,144.5C 831.831,145.009 830.998,145.842 830.5,147C 831.598,147.77 831.598,148.603 830.5,149.5C 828.738,149.643 827.071,149.309 825.5,148.5C 823.86,151.722 821.193,153.056 817.5,152.5C 817.5,153.833 817.5,155.167 817.5,156.5C 814.513,156.998 811.513,157.498 808.5,158C 801.715,161.644 795.382,165.811 789.5,170.5C 787.473,170.338 785.473,170.505 783.5,171C 780.339,172.993 777.006,174.493 773.5,175.5C 802.589,159.786 831.589,143.786 860.5,127.5 Z"/></g>
<g><path style="opacity:0.986" fill="#f1eff8" d="M 830.5,149.5 C 826.334,152.084 822,154.417 817.5,156.5C 817.5,155.167 817.5,153.833 817.5,152.5C 821.193,153.056 823.86,151.722 825.5,148.5C 827.071,149.309 828.738,149.643 830.5,149.5 Z"/></g>
<g><path style="opacity:0.161" fill="#f9f8fd" d="M 393.5,155.5 C 396.089,155.461 398.089,156.461 399.5,158.5C 397.181,158.008 395.181,157.008 393.5,155.5 Z"/></g>
<g><path style="opacity:0.946" fill="#f2f1f9" d="M 817.5,156.5 C 808.484,161.675 799.151,166.341 789.5,170.5C 795.382,165.811 801.715,161.644 808.5,158C 811.513,157.498 814.513,156.998 817.5,156.5 Z"/></g>
<g><path style="opacity:1" fill="#ddd9f5" d="M 455.5,158.5 C 485.68,168.673 516.18,178.007 547,186.5C 574.828,193.648 603.328,199.148 632.5,203C 648.916,204.035 665.249,203.535 681.5,201.5C 678.516,204.326 675.183,206.659 671.5,208.5C 667.245,211.066 662.578,212.399 657.5,212.5C 656.325,212.719 655.325,212.386 654.5,211.5C 655.665,210.416 656.998,209.583 658.5,209C 654.514,208.501 650.514,208.334 646.5,208.5C 646.67,209.822 646.337,210.989 645.5,212C 628.335,213.857 611.002,213.857 593.5,212C 586.733,211.874 580.066,211.041 573.5,209.5C 571.536,210.473 569.536,210.306 567.5,209C 558.07,209.482 549.403,207.982 541.5,204.5C 540.914,204.709 540.414,205.043 540,205.5C 538.601,204.773 537.101,204.273 535.5,204C 534.167,203 534.167,202 535.5,201C 534.552,200.517 533.552,200.351 532.5,200.5C 532.719,201.675 532.386,202.675 531.5,203.5C 526.331,201.735 520.998,201.068 515.5,201.5C 513.784,201.371 512.117,201.038 510.5,200.5C 505.105,199.425 500.105,197.425 495.5,194.5C 481.868,182.87 468.535,170.87 455.5,158.5 Z"/></g>
<g><path style="opacity:0.72" fill="#f1eff9" d="M 789.5,170.5 C 778.904,175.96 767.904,180.627 756.5,184.5C 761.566,180.572 767.233,177.572 773.5,175.5C 777.006,174.493 780.339,172.993 783.5,171C 785.473,170.505 787.473,170.338 789.5,170.5 Z"/></g>
<g><path style="opacity:0.796" fill="#f4f3f9" d="M 453.5,182.5 C 461.353,183.955 468.686,186.622 475.5,190.5C 467.874,188.405 460.541,185.738 453.5,182.5 Z"/></g>
<g><path style="opacity:0.396" fill="#f3f1fb" d="M 756.5,184.5 C 753.203,186.601 749.537,187.935 745.5,188.5C 748.797,186.399 752.463,185.065 756.5,184.5 Z"/></g>
<g><path style="opacity:0.967" fill="#e9e6f5" d="M 745.5,188.5 C 742.203,190.601 738.537,191.935 734.5,192.5C 735.343,190.827 736.676,189.66 738.5,189C 740.846,189.792 743.179,189.625 745.5,188.5 Z"/></g>
<g><path style="opacity:0.967" fill="#f2f0f9" d="M 481.5,192.5 C 486.132,193.376 490.799,194.043 495.5,194.5C 500.105,197.425 505.105,199.425 510.5,200.5C 510.328,201.492 510.662,202.158 511.5,202.5C 511.733,204.062 512.4,205.395 513.5,206.5C 509.388,204.272 505.388,201.772 501.5,199C 494.619,197.121 487.952,194.955 481.5,192.5 Z"/></g>
<g><path style="opacity:0.922" fill="#f0eef8" d="M 10.5,195.5 C 6.85916,198.805 3.19249,202.138 -0.5,205.5C -0.5,204.167 -0.5,202.833 -0.5,201.5C 2.00243,199.838 4.1691,197.838 6,195.5C 7.41391,196.413 8.91391,196.413 10.5,195.5 Z"/></g>
<g><path style="opacity:0.996" fill="#eeebf9" d="M 732.5,193.5 C 716.78,200.185 700.447,205.185 683.5,208.5C 679.5,208.5 675.5,208.5 671.5,208.5C 675.183,206.659 678.516,204.326 681.5,201.5C 682.167,201.5 682.833,201.5 683.5,201.5C 689.849,201.265 696.183,200.765 702.5,200C 712.586,197.713 722.586,195.547 732.5,193.5 Z"/></g>
<g><path style="opacity:0.996" fill="#edebf8" d="M 511.5,202.5 C 523.803,206.08 536.137,208.58 548.5,210C 549.126,210.75 549.626,211.584 550,212.5C 556.838,212.734 563.838,212.734 571,212.5C 575.903,213.824 580.903,214.824 586,215.5C 586.772,215.355 587.439,215.022 588,214.5C 609.867,216.595 632.034,216.929 654.5,215.5C 652.167,216.833 649.833,218.167 647.5,219.5C 619.255,231.266 590.255,233.599 560.5,226.5C 558.358,222.929 555.358,221.929 551.5,223.5C 547.258,221.752 542.924,220.418 538.5,219.5C 529.415,216.459 521.081,212.125 513.5,206.5C 512.4,205.395 511.733,204.062 511.5,202.5 Z"/></g>
<g><path style="opacity:0.835" fill="#f2f0fa" d="M 671.5,208.5 C 675.5,208.5 679.5,208.5 683.5,208.5C 677.036,210.307 670.369,211.807 663.5,213C 658.475,216.015 653.142,218.182 647.5,219.5C 649.833,218.167 652.167,216.833 654.5,215.5C 654.167,214.833 653.833,214.167 653.5,213.5C 655.099,213.768 656.432,213.434 657.5,212.5C 662.578,212.399 667.245,211.066 671.5,208.5 Z"/></g>
<g><path style="opacity:1" fill="#dfdbf3" d="M 657.5,212.5 C 656.432,213.434 655.099,213.768 653.5,213.5C 606.701,216.671 560.701,212.671 515.5,201.5C 520.998,201.068 526.331,201.735 531.5,203.5C 532.386,202.675 532.719,201.675 532.5,200.5C 533.552,200.351 534.552,200.517 535.5,201C 534.167,202 534.167,203 535.5,204C 537.101,204.273 538.601,204.773 540,205.5C 540.414,205.043 540.914,204.709 541.5,204.5C 549.403,207.982 558.07,209.482 567.5,209C 569.536,210.306 571.536,210.473 573.5,209.5C 580.066,211.041 586.733,211.874 593.5,212C 611.002,213.857 628.335,213.857 645.5,212C 646.337,210.989 646.67,209.822 646.5,208.5C 650.514,208.334 654.514,208.501 658.5,209C 656.998,209.583 655.665,210.416 654.5,211.5C 655.325,212.386 656.325,212.719 657.5,212.5 Z"/></g>
<g><path style="opacity:1" fill="#ece9fb" d="M 510.5,200.5 C 512.117,201.038 513.784,201.371 515.5,201.5C 560.701,212.671 606.701,216.671 653.5,213.5C 653.833,214.167 654.167,214.833 654.5,215.5C 632.034,216.929 609.867,216.595 588,214.5C 587.439,215.022 586.772,215.355 586,215.5C 580.903,214.824 575.903,213.824 571,212.5C 563.838,212.734 556.838,212.734 550,212.5C 549.626,211.584 549.126,210.75 548.5,210C 536.137,208.58 523.803,206.08 511.5,202.5C 510.662,202.158 510.328,201.492 510.5,200.5 Z"/></g>
<g><path style="opacity:0.96" fill="#f2f0f9" d="M 538.5,219.5 C 542.924,220.418 547.258,221.752 551.5,223.5C 555.358,221.929 558.358,222.929 560.5,226.5C 552.698,225.342 545.364,223.009 538.5,219.5 Z"/></g>
</svg>
