<svg xmlns="http://www.w3.org/2000/svg" width="20" height="12" fill="#FFF">
  <path d="M9 2h10c.2652 0 .5196-.10536.7071-.29289C19.8946 1.51957 20 1.26522 20 1c0-.265216-.1054-.519571-.2929-.707108C19.5196.105356 19.2652 0 19 0H9c-.26522 0-.51957.105356-.70711.292892C8.10536.480429 8 .734784 8 1c0 .26522.10536.51957.29289.70711C8.48043 1.89464 8.73478 2 9 2Zm10 8H1c-.265216 0-.519571.1054-.707108.2929C.105356 10.4804 0 10.7348 0 11c0 .2652.105356.5196.292892.7071C.480429 11.8946.734784 12 1 12h18c.2652 0 .5196-.1054.7071-.2929S20 11.2652 20 11c0-.2652-.1054-.5196-.2929-.7071S19.2652 10 19 10ZM1 7h18c.2652 0 .5196-.10536.7071-.29289C19.8946 6.51957 20 6.26522 20 6s-.1054-.51957-.2929-.70711C19.5196 5.10536 19.2652 5 19 5H1c-.265216 0-.519571.10536-.707108.29289C.105356 5.48043 0 5.73478 0 6s.105356.51957.292892.70711C.480429 6.89464.734784 7 1 7Z"/>
</svg>
