<svg xmlns="http://www.w3.org/2000/svg" width="1048" height="238" style="shape-rendering:geometricPrecision;text-rendering:geometricPrecision;image-rendering:optimizeQuality;fill-rule:evenodd;clip-rule:evenodd">
  <path fill="#d0c9f1" d="M-.5-.5h1048v81c-18.97-4.4053-38.14-5.0719-57.5-2-.873-.2355-1.707-.5688-2.5-1-20.805 4.5504-41.138 10.3837-61 17.5-13.509-.389-27.009-1.2223-40.5-2.5-47.252-.0979-88.086 15.569-122.5 47-18.061 13.694-35.728 27.861-53 42.5-1.293.49-2.627.657-4 .5-.421 2.41-1.754 4.243-4 5.5-6.919 3.881-13.253 8.381-19 13.5h-2c-16.251 2.035-32.584 2.535-49 1.5-29.172-3.852-57.672-9.352-85.5-16.5-30.82-8.493-61.32-17.827-91.5-28-1-.667-2-1.333-3-2-16.316-14.903-33.65-27.736-52-38.5-24.214-12.265-49.881-19.5985-77-22-18.97-1.7607-37.97-2.9273-57-3.5-9.212-3.5957-18.879-5.5957-29-6-5.984-.5742-11.984-.9075-18-1-2.469-.8171-5.135-1.3171-8-1.5-59.121-2.0795-116.1207 6.2539-171 25-13.1453 3.56-25.6453 8.393-37.5 14.5-.98619-.671-2.152859-.671-3.5 0V-.5Z" style="opacity:1"/>
  <path fill="#ddd9f5" d="M219.5 85.5c-6.19-.3229-12.19.0104-18 1-3.542-.3128-6.875.0206-10 1-17.832.8601-35.165 3.8601-52 9-50.2119 14.206-96.8786 35.872-140 65v-38c1.347141-.671 2.51381-.671 3.5 0 11.8547-6.107 24.3547-10.94 37.5-14.5 54.8793-18.7461 111.879-27.0795 171-25 2.865.1829 5.531.6829 8 1.5Z" style="opacity:1"/>
  <path fill="#e6e2f7" d="M201.5 86.5c5.81-.9896 11.81-1.3229 18-1 6.016.0925 12.016.4258 18 1v1c-11.99-.6227-23.99-.9561-36-1Z" style="opacity:1"/>
  <path fill="#edebf9" d="M201.5 86.5c12.01.0439 24.01.3773 36 1 9.756 1.203 19.423 2.8697 29 5v1c-5.526-.3214-10.86.0119-16 1-14.568 1.6992-29.234 3.6992-44 6-5.394-.376-10.394.624-15 3-1.419.951-3.085 1.284-5 1-5.04.423-9.707 1.756-14 4-5.394 2.239-11.061 3.906-17 5-7.468.006-14.468 1.673-21 5 1.291 1.027 1.291 2.027 0 3-1.921.863-3.921 1.529-6 2-2.846.052-5.18 1.052-7 3-3.602.192-6.602 1.526-9 4-1.014 1.174-2.347 1.84-4 2-4.412 1.369-8.7457 3.036-13 5-.6667-.333-1.3333-.667-2-1-.7379 1.565-1.7379 3.232-3 5-28.5558 15.226-55.2225 33.226-80 54-1.58609.913-3.08609.913-4.5 0-1.8309 2.338-3.99757 4.338-6.5 6v-40c43.1214-29.128 89.7881-50.794 140-65 5.85.6393 11.35-.3607 16.5-3 3.375 1.212 6.375.5454 9-2 1.4.6159 2.9.9493 4.5 1 5.452-1.2621 10.952-2.2621 16.5-3 2.631 1.5362 4.465.8695 5.5-2 3.125-.9794 6.458-1.3128 10-1Z" style="opacity:.998"/>
  <path fill="#d2cded" d="M237.5 87.5v-1c10.121.4043 19.788 2.4043 29 6-9.577-2.1303-19.244-3.797-29-5Z" style="opacity:1"/>
  <path fill="#ece9fb" d="M191.5 87.5c-1.035 2.8695-2.869 3.5362-5.5 2-5.548.7379-11.048 1.7379-16.5 3-1.6-.0507-3.1-.3841-4.5-1-2.625 2.5454-5.625 3.212-9 2-5.15 2.6393-10.65 3.6393-16.5 3 16.835-5.1399 34.168-8.1399 52-9Z" style="opacity:1"/>
  <path fill="#f7f6fb" d="M250.5 94.5c5.14-.9881 10.474-1.3214 16-1 2.398-.2406 4.398.4261 6 2-7.291-.8924-14.624-1.2257-22-1Z" style="opacity:.128"/>
  <path fill="#ddd9f4" d="M266.5 93.5v-1c19.03.5727 38.03 1.7393 57 3.5 27.119 2.4015 52.786 9.735 77 22 18.35 10.764 35.684 23.597 52 38.5-42.677-15.002-85.343-30.002-128-45-1.542-.801-3.208-1.134-5-1-6.403-2.858-13.07-5.191-20-7-5.817-1.707-11.483-3.8738-17-6.5-3.293-.8256-6.626-1.3256-10-1.5-1.602-1.5739-3.602-2.2406-6-2Z" style="opacity:1"/>
  <path fill="#ddd9f5" d="M1047.5 80.5v43c-6.15-4.407-12.81-7.74-20-10-9.92-4.998-20.58-7.998-32-9-14.004.167-28.004 0-42-.5-5.887-2.019-11.887-3.519-18-4.5-3.66-1.1727-7.493-2.1727-11.5-3-6.578 2.0472-12.745 4.714-18.5 8-15.758 6.378-30.758 14.045-45 23-28.911 16.286-57.911 32.286-87 48-6.267 2.072-11.934 5.072-17 9-4.037.565-7.703 1.899-11 4-2.321 1.125-4.654 1.292-7 .5-1.824.66-3.157 1.827-4 3.5-.342.838-1.008 1.172-2 1-9.914 2.047-19.914 4.213-30 6.5-6.317.765-12.651 1.265-19 1.5 5.747-5.119 12.081-9.619 19-13.5 2.246-1.257 3.579-3.09 4-5.5 1.373.157 2.707-.01 4-.5 17.272-14.639 34.939-28.806 53-42.5 34.414-31.431 75.248-47.0979 122.5-47 13.491 1.2777 26.991 2.111 40.5 2.5 19.862-7.1163 40.195-12.9496 61-17.5.793.4312 1.627.7645 2.5 1 19.36-3.0719 38.53-2.4053 57.5 2Z" style="opacity:1"/>
  <path fill="#ece9fa" d="M935.5 99.5c-.934 1.068-1.268 2.401-1 4 1.603-.188 2.937.312 4 1.5-2.333.667-4.667.667-7 0-1.333-1.333-1.333-2.667 0-4-.753-1.487-1.586-1.6537-2.5-.5-3.809-2.6184-7.643-2.6184-11.5 0 4.145 1.237 7.812 3.237 11 6-.387 1.22-1.22 1.887-2.5 2-3.135-.932-6.301-.932-9.5 0-.381-2.442.286-3.109 2-2 1.295-.598 2.628-1.098 4-1.5-2.708-.236-5.208-1.069-7.5-2.5-2.968 1.578-6.135 2.245-9.5 2 5.755-3.286 11.922-5.9528 18.5-8 4.007.8273 7.84 1.8273 11.5 3Z" style="opacity:1"/>
  <path fill="#f8f7fb" d="M206.5 100.5c-4.756 1.618-9.756 2.618-15 3 4.606-2.376 9.606-3.376 15-3Z" style="opacity:.371"/>
  <path fill="#edebf9" d="M935.5 99.5c6.113.981 12.113 2.481 18 4.5 13.996.5 27.996.667 42 .5 1.135.974 2.135 2.141 3 3.5 3.54.282 7.04.782 10.5 1.5 1.71.637 1.88 1.637.5 3 .82.886 1.82 1.219 3 1v-3c3.59-.058 6.76.942 9.5 3 1.63-.354 3.46-.354 5.5 0 7.19 2.26 13.85 5.593 20 10v39c-26.2-24.666-56.202-43.499-90-56.5-4.348-.415-8.681-.249-13 .5-4.377.077-8.71.577-13 1.5-5.225 1.081-10.225 2.581-15 4.5-8.581 2.973-17.248 5.973-26 9-6.052.945-11.885 2.612-17.5 5-2.042-.115-4.042-.449-6-1-1.879 1.513-4.046 2.179-6.5 2 14.242-8.955 29.242-16.622 45-23 3.365.245 6.532-.422 9.5-2 2.292 1.431 4.792 2.264 7.5 2.5-1.372.402-2.705.902-4 1.5-1.714-1.109-2.381-.442-2 2 3.199-.932 6.365-.932 9.5 0 1.28-.113 2.113-.78 2.5-2-3.188-2.763-6.855-4.763-11-6 3.857-2.6184 7.691-2.6184 11.5 0 .914-1.1537 1.747-.987 2.5.5-1.333 1.333-1.333 2.667 0 4 2.333.667 4.667.667 7 0-1.063-1.188-2.397-1.688-4-1.5-.268-1.599.066-2.932 1-4Z" style="opacity:.996"/>
  <path fill="#ece9fa" d="M299.5 103.5c6.93 1.809 13.597 4.142 20 7-3.769.045-7.602-.955-11.5-3l-1 1c-2.665-1.461-5.165-3.128-7.5-5Z" style="opacity:1"/>
  <path fill="#f8f7fc" d="M186.5 104.5c-4.388 1.934-9.055 3.267-14 4 4.293-2.244 8.96-3.577 14-4Z" style="opacity:.037"/>
  <path fill="#ebe9fb" d="M995.5 104.5c11.42 1.002 22.08 4.002 32 9-2.04-.354-3.87-.354-5.5 0-2.74-2.058-5.91-3.058-9.5-3v3c-1.18.219-2.18-.114-3-1 1.38-1.363 1.21-2.363-.5-3-3.46-.718-6.96-1.218-10.5-1.5-.865-1.359-1.865-2.526-3-3.5Z" style="opacity:1"/>
  <path fill="#f9f8fc" d="M944.5 106.5c-9.085 2.6-18.418 4.6-28 6 4.775-1.919 9.775-3.419 15-4.5 4.29-.923 8.623-1.423 13-1.5Z" style="opacity:.051"/>
  <path fill="#f0eef9" d="M272.5 95.5c3.374.1744 6.707.6744 10 1.5 5.517 2.6262 11.183 4.793 17 6.5 2.335 1.872 4.835 3.539 7.5 5l1-1c3.898 2.045 7.731 3.045 11.5 3 1.792-.134 3.458.199 5 1 1.999 2.816 3.999 6.149 6 10-18.908-9.791-38.242-18.458-58-26Z" style="opacity:.99"/>
  <path fill="#f2f0f9" d="M155.5 113.5c-6.769 3.038-13.769 5.704-21 8 1.291-.973 1.291-1.973 0-3 6.532-3.327 13.532-4.994 21-5Z" style="opacity:.985"/>
  <path fill="#f9f8fc" d="M128.5 123.5c-2.009 1.565-4.343 2.565-7 3 1.82-1.948 4.154-2.948 7-3Z" style="opacity:.024"/>
  <path fill="#f1f0f9" d="M890.5 121.5c-16.007 7.123-32.007 14.456-48 22 1.785-3.773 4.785-5.439 9-5v-4c3.741.901 5.741-.432 6-4h3v-3c2.454.179 4.621-.487 6.5-2 1.958.551 3.958.885 6 1 5.615-2.388 11.448-4.055 17.5-5Z" style="opacity:.996"/>
  <path fill="#edebf9" d="M324.5 111.5c42.657 14.998 85.323 29.998 128 45 1 .667 2 1.333 3 2 13.035 12.37 26.368 24.37 40 36-4.701-.457-9.368-1.124-14-2-2.286-.095-4.286-.762-6-2-6.814-3.878-14.147-6.545-22-8-18.54-6.94-36.54-14.94-54-24-1.411-2.039-3.411-3.039-6-3-21.167-11.083-42.167-22.416-63-34-2.001-3.851-4.001-7.184-6-10Z" style="opacity:.998"/>
  <path fill="#f8f7fc" d="M121.5 126.5c-2.588 2.092-5.588 3.425-9 4 2.398-2.474 5.398-3.808 9-4Z" style="opacity:.082"/>
  <path fill="#f5f3fb" d="M108.5 132.5c-5.781 3.376-11.781 6.376-18 9 1.2621-1.768 2.2621-3.435 3-5 .6667.333 1.3333.667 2 1 4.2543-1.964 8.588-3.631 13-5Z" style="opacity:1"/>
  <path fill="#f2f0f9" d="M842.5 143.5c-3.682 2.508-7.682 4.508-12 6 1.098-.897 1.098-1.73 0-2.5.498-1.158 1.331-1.991 2.5-2.5 3.126.169 6.293-.165 9.5-1Z" style="opacity:.979"/>
  <path fill="#ece9fa" d="M860.5 127.5v3h-3c-.259 3.568-2.259 4.901-6 4v4c-4.215-.439-7.215 1.227-9 5-3.207.835-6.374 1.169-9.5 1-1.169.509-2.002 1.342-2.5 2.5 1.098.77 1.098 1.603 0 2.5-1.762.143-3.429-.191-5-1-1.64 3.222-4.307 4.556-8 4v4c-2.987.498-5.987.998-9 1.5-6.785 3.644-13.118 7.811-19 12.5-2.027-.162-4.027.005-6 .5-3.161 1.993-6.494 3.493-10 4.5 29.089-15.714 58.089-31.714 87-48Z" style="opacity:1"/>
  <path fill="#f1eff8" d="M830.5 149.5c-4.166 2.584-8.5 4.917-13 7v-4c3.693.556 6.36-.778 8-4 1.571.809 3.238 1.143 5 1Z" style="opacity:.986"/>
  <path fill="#f9f8fd" d="M393.5 155.5c2.589-.039 4.589.961 6 3-2.319-.492-4.319-1.492-6-3Z" style="opacity:.161"/>
  <path fill="#f2f1f9" d="M817.5 156.5c-9.016 5.175-18.349 9.841-28 14 5.882-4.689 12.215-8.856 19-12.5 3.013-.502 6.013-1.002 9-1.5Z" style="opacity:.946"/>
  <path fill="#ddd9f5" d="M455.5 158.5c30.18 10.173 60.68 19.507 91.5 28 27.828 7.148 56.328 12.648 85.5 16.5 16.416 1.035 32.749.535 49-1.5-2.984 2.826-6.317 5.159-10 7-4.255 2.566-8.922 3.899-14 4-1.175.219-2.175-.114-3-1 1.165-1.084 2.498-1.917 4-2.5-3.986-.499-7.986-.666-12-.5.17 1.322-.163 2.489-1 3.5-17.165 1.857-34.498 1.857-52 0-6.767-.126-13.434-.959-20-2.5-1.964.973-3.964.806-6-.5-9.43.482-18.097-1.018-26-4.5-.586.209-1.086.543-1.5 1-1.399-.727-2.899-1.227-4.5-1.5-1.333-1-1.333-2 0-3-.948-.483-1.948-.649-3-.5.219 1.175-.114 2.175-1 3-5.169-1.765-10.502-2.432-16-2-1.716-.129-3.383-.462-5-1-5.395-1.075-10.395-3.075-15-6-13.632-11.63-26.965-23.63-40-36Z" style="opacity:1"/>
  <path fill="#f1eff9" d="M789.5 170.5c-10.596 5.46-21.596 10.127-33 14 5.066-3.928 10.733-6.928 17-9 3.506-1.007 6.839-2.507 10-4.5 1.973-.495 3.973-.662 6-.5Z" style="opacity:.72"/>
  <path fill="#f4f3f9" d="M453.5 182.5c7.853 1.455 15.186 4.122 22 8-7.626-2.095-14.959-4.762-22-8Z" style="opacity:.796"/>
  <path fill="#f3f1fb" d="M756.5 184.5c-3.297 2.101-6.963 3.435-11 4 3.297-2.101 6.963-3.435 11-4Z" style="opacity:.396"/>
  <path fill="#e9e6f5" d="M745.5 188.5c-3.297 2.101-6.963 3.435-11 4 .843-1.673 2.176-2.84 4-3.5 2.346.792 4.679.625 7-.5Z" style="opacity:.967"/>
  <path fill="#f2f0f9" d="M481.5 192.5c4.632.876 9.299 1.543 14 2 4.605 2.925 9.605 4.925 15 6-.172.992.162 1.658 1 2 .233 1.562.9 2.895 2 4-4.112-2.228-8.112-4.728-12-7.5-6.881-1.879-13.548-4.045-20-6.5Z" style="opacity:.967"/>
  <path fill="#f0eef8" d="M10.5 195.5c-3.64084 3.305-7.30751 6.638-11 10v-4c2.50243-1.662 4.6691-3.662 6.5-6 1.41391.913 2.91391.913 4.5 0Z" style="opacity:.922"/>
  <path fill="#eeebf9" d="M732.5 193.5c-15.72 6.685-32.053 11.685-49 15h-12c3.683-1.841 7.016-4.174 10-7h2c6.349-.235 12.683-.735 19-1.5 10.086-2.287 20.086-4.453 30-6.5Z" style="opacity:.996"/>
  <path fill="#edebf8" d="M511.5 202.5c12.303 3.58 24.637 6.08 37 7.5.626.75 1.126 1.584 1.5 2.5 6.838.234 13.838.234 21 0 4.903 1.324 9.903 2.324 15 3 .772-.145 1.439-.478 2-1 21.867 2.095 44.034 2.429 66.5 1-2.333 1.333-4.667 2.667-7 4-28.245 11.766-57.245 14.099-87 7-2.142-3.571-5.142-4.571-9-3-4.242-1.748-8.576-3.082-13-4-9.085-3.041-17.419-7.375-25-13-1.1-1.105-1.767-2.438-2-4Z" style="opacity:.996"/>
  <path fill="#f2f0fa" d="M671.5 208.5h12c-6.464 1.807-13.131 3.307-20 4.5-5.025 3.015-10.358 5.182-16 6.5 2.333-1.333 4.667-2.667 7-4-.333-.667-.667-1.333-1-2 1.599.268 2.932-.066 4-1 5.078-.101 9.745-1.434 14-4Z" style="opacity:.835"/>
  <path fill="#dfdbf3" d="M657.5 212.5c-1.068.934-2.401 1.268-4 1-46.799 3.171-92.799-.829-138-12 5.498-.432 10.831.235 16 2 .886-.825 1.219-1.825 1-3 1.052-.149 2.052.017 3 .5-1.333 1-1.333 2 0 3 1.601.273 3.101.773 4.5 1.5.414-.457.914-.791 1.5-1 7.903 3.482 16.57 4.982 26 4.5 2.036 1.306 4.036 1.473 6 .5 6.566 1.541 13.233 2.374 20 2.5 17.502 1.857 34.835 1.857 52 0 .837-1.011 1.17-2.178 1-3.5 4.014-.166 8.014.001 12 .5-1.502.583-2.835 1.416-4 2.5.825.886 1.825 1.219 3 1Z" style="opacity:1"/>
  <path fill="#ece9fb" d="M510.5 200.5c1.617.538 3.284.871 5 1 45.201 11.171 91.201 15.171 138 12 .333.667.667 1.333 1 2-22.466 1.429-44.633 1.095-66.5-1-.561.522-1.228.855-2 1-5.097-.676-10.097-1.676-15-3-7.162.234-14.162.234-21 0-.374-.916-.874-1.75-1.5-2.5-12.363-1.42-24.697-3.92-37-7.5-.838-.342-1.172-1.008-1-2Z" style="opacity:1"/>
  <path fill="#f2f0f9" d="M538.5 219.5c4.424.918 8.758 2.252 13 4 3.858-1.571 6.858-.571 9 3-7.802-1.158-15.136-3.491-22-7Z" style="opacity:.96"/>
</svg>
